<?xml version="1.0" encoding="iso-8859-1"?>
<!-- Generator: Adobe Illustrator 19.0.0, SVG Export Plug-In . SVG Version: 6.00 Build 0)  -->
<svg version="1.1" id="Layer_1" xmlns="http://www.w3.org/2000/svg" xmlns:xlink="http://www.w3.org/1999/xlink" x="0px" y="0px"
	 viewBox="0 0 512 512" style="enable-background:new 0 0 512 512;" xml:space="preserve">
<g>
	<path style="fill:#B8BFCC;" d="M4.393,464.978c-5.858-5.858-5.858-15.349,0-21.207l92.302-91.887
		c5.858-5.858,15.349-5.858,21.207,0c5.858,5.858,5.858,15.349,0,21.207L25.6,464.978C19.741,470.836,10.251,470.836,4.393,464.978z
		"/>
	<path style="fill:#B8BFCC;" d="M4.393,380.15c-5.858-5.858-5.858-15.349,0-21.207l49.888-49.488c5.858-5.858,15.349-5.858,21.207,0
		c5.858,5.858,5.858,15.349,0,21.207L25.6,380.15C19.741,386.009,10.251,386.009,4.393,380.15z"/>
	<path style="fill:#B8BFCC;" d="M46.821,507.405c-5.858-5.858-5.858-15.349,0-21.207l92.287-91.902
		c5.858-5.858,15.349-5.858,21.207,0c5.858,5.858,5.858,15.349,0,21.207l-92.287,91.902
		C62.169,513.264,52.68,513.264,46.821,507.405z"/>
	<path style="fill:#B8BFCC;" d="M131.649,507.405c-5.858-5.858-5.858-15.349,0-21.207l49.888-49.488
		c5.858-5.858,15.349-5.858,21.207,0c5.858,5.858,5.858,15.349,0,21.207l-49.888,49.488
		C146.997,513.264,137.506,513.264,131.649,507.405z"/>
</g>
<path style="fill:#D2DAE9;" d="M239.952,426.16c-6.152-2.333-11.879-5.515-16.756-10.392L95.943,288.513
	c-4.878-4.878-8.059-10.605-10.392-16.756l7.212-21.208l177.307-21.209l-1.697,13.997L248.859,404.95L239.952,426.16z"/>
<path style="fill:#C7CEDD;" d="M509.308,156.905l-21.21,8.907l-133.192,21.111l-30.118-30.018L325,45.033l29.693-42.418
	c6.363,2.122,12.09,5.304,16.967,10.181L498.914,140.05C503.792,144.927,506.974,150.754,509.308,156.905z"/>
<path style="fill:#DAE2F2;" d="M509.363,156.959c-68.343-0.001-111.8,0-184.515,0L240.009,241.7c0,19.653-0.001-7.902-0.001,184.514
	c17.802,6.307,35.745,0.628,46.807-10.452l212.097-212.082C509.983,192.609,515.702,174.85,509.363,156.959z"/>
<path style="fill:#E6EEFF;" d="M286.814,415.762l106.05-106.045L282.428,199.281l-42.419,42.419c0,19.652-0.002-7.903-0.002,184.514
	C257.809,432.52,275.751,426.841,286.814,415.762z"/>
<path style="fill:#A680FF;" d="M309.943,271.758c-24.178,0-47.085-0.001-69.989-0.001H85.55
	c-6.363-17.817-0.848-35.631,10.392-46.871L308.033,12.796c11.029-11.029,29.905-15.907,46.66-10.181v154.503
	c0.212,24.391,0,13.898,0.212,69.678C354.905,251.396,334.544,271.757,309.943,271.758z"/>
<path style="fill:#B999FF;" d="M309.942,271.757c12.303,0,23.541-5.089,31.708-13.256L201.987,118.839L95.943,224.887
	c-11.241,11.239-16.755,29.055-10.393,46.872h154.403C262.858,271.757,285.763,271.757,309.942,271.757z"/>
<g>
</g>
<g>
</g>
<g>
</g>
<g>
</g>
<g>
</g>
<g>
</g>
<g>
</g>
<g>
</g>
<g>
</g>
<g>
</g>
<g>
</g>
<g>
</g>
<g>
</g>
<g>
</g>
<g>
</g>
</svg>
